<?xml version="1.0" encoding="utf-8"?>
<!-- Generator: Adobe Illustrator 16.0.0, SVG Export Plug-In . SVG Version: 6.00 Build 0)  -->
<!DOCTYPE svg PUBLIC "-//W3C//DTD SVG 1.1//EN" "http://www.w3.org/Graphics/SVG/1.1/DTD/svg11.dtd">
<svg version="1.1" id="Layer_1" xmlns="http://www.w3.org/2000/svg" xmlns:xlink="http://www.w3.org/1999/xlink" x="0px" y="0px"
	 width="209.815px" height="110px" viewBox="0 0 209.815 110" enable-background="new 0 0 209.815 110" xml:space="preserve">
<path d="M11.69,79.341c0.279-0.005,0.586-0.093,0.919-0.267c0.333-0.173,0.637-0.373,0.914-0.603
	c0.276-0.172,0.483-0.329,0.622-0.471c0.136-0.141,0.261-0.242,0.373-0.3c0.166-0.114,0.331-0.243,0.497-0.386
	c0.166-0.142,0.359-0.271,0.581-0.388c0.387-0.285,0.774-0.57,1.162-0.857c0.386-0.285,0.773-0.627,1.159-1.026
	c0.274-0.283,0.507-0.554,0.7-0.808c0.192-0.255,0.371-0.439,0.537-0.555c0.11-0.113,0.261-0.257,0.455-0.427
	c0.192-0.171,0.344-0.312,0.455-0.427c0.33-0.341,0.672-0.752,1.029-1.234c0.356-0.48,0.67-0.946,0.943-1.399
	c0.108-0.226,0.272-0.467,0.492-0.722c0.219-0.256,0.383-0.522,0.491-0.805c0.053-0.113,0.149-0.31,0.284-0.593
	c0.135-0.281,0.231-0.451,0.286-0.508c0.216-0.451,0.434-0.859,0.652-1.228c0.217-0.367,0.435-0.775,0.652-1.228
	c0.433-0.847,0.757-1.578,0.972-2.198c0.165-0.17,0.355-0.495,0.572-0.974c0.215-0.479,0.404-0.943,0.565-1.395
	c0.161-0.45,0.293-0.872,0.4-1.266c0.105-0.393,0.186-0.59,0.242-0.591c0.267-0.787,0.422-1.603,0.464-2.442
	s0.113-1.652,0.213-2.438c-0.004-0.279-0.009-0.6-0.015-0.965c-0.006-0.363-0.039-0.684-0.099-0.963
	c-0.062-0.335-0.154-0.823-0.275-1.465c-0.124-0.64-0.27-1.129-0.444-1.462c-0.117-0.277-0.234-0.626-0.352-1.043
	c-0.119-0.418-0.264-0.765-0.436-1.043c-0.057-0.054-0.158-0.178-0.3-0.373c-0.144-0.193-0.3-0.4-0.472-0.622
	c-0.171-0.22-0.328-0.385-0.469-0.496c-0.143-0.109-0.326-0.217-0.551-0.327c-0.34-0.217-0.761-0.378-1.267-0.483
	c-0.505-0.103-0.926-0.153-1.262-0.148l-1.342,0.022c-0.447,0.12-0.795,0.167-1.047,0.142c-0.252-0.023-0.602-0.003-1.049,0.059
	c-0.39,0.063-0.767,0.153-1.128,0.27c-0.363,0.118-0.739,0.236-1.127,0.354c-0.167,0.058-0.376,0.132-0.626,0.22
	c-0.251,0.087-0.432,0.161-0.543,0.218c-0.279,0.117-0.556,0.248-0.833,0.391c-0.278,0.145-0.528,0.275-0.749,0.39
	c-0.167,0.059-0.473,0.217-0.916,0.476c-0.444,0.259-0.721,0.446-0.83,0.559c-0.111,0.114-0.373,0.328-0.788,0.642
	c-0.414,0.315-0.677,0.529-0.787,0.642c-0.111,0.115-0.413,0.399-0.909,0.854c-0.497,0.456-0.828,0.769-0.993,0.939
	c-0.276,0.286-0.508,0.569-0.7,0.851c-0.192,0.284-0.314,0.508-0.366,0.677C7.592,52.294,7.61,52.546,7.7,52.88
	c0.089,0.334,0.304,0.667,0.645,0.997c0.225,0.164,0.536,0.299,0.93,0.404c0.111-0.001,0.21,0.026,0.295,0.08
	c0.085,0.055,0.183,0.081,0.295,0.079c0.112,0.055,0.337,0.093,0.673,0.115c0.337,0.024,0.643,0.004,0.923-0.056
	c0.334-0.061,0.64-0.164,0.918-0.309c0.277-0.143,0.582-0.33,0.915-0.56c0.332-0.228,0.717-0.57,1.158-1.026
	c0.44-0.454,0.715-0.738,0.826-0.853c0.276-0.227,0.551-0.47,0.828-0.726c0.275-0.256,0.551-0.498,0.828-0.727
	c0.109-0.113,0.344-0.27,0.706-0.473c0.36-0.201,0.735-0.389,1.124-0.564c0.277-0.115,0.555-0.204,0.835-0.265
	c0.279-0.059,0.502-0.092,0.67-0.094c0.168-0.003,0.448,0.064,0.842,0.196c0.393,0.134,0.678,0.396,0.852,0.784
	c0.174,0.333,0.276,0.696,0.311,1.086c0.034,0.392,0.053,0.644,0.055,0.755c0.007,0.448,0,0.895-0.021,1.343
	c-0.022,0.449-0.112,0.898-0.272,1.347c0.001,0.057-0.053,0.225-0.16,0.507c-0.108,0.282-0.189,0.479-0.242,0.591
	c-0.109,0.283-0.242,0.632-0.403,1.056c-0.161,0.422-0.296,0.773-0.403,1.056c-0.217,0.451-0.461,0.959-0.731,1.521
	c-0.272,0.565-0.57,1.157-0.895,1.777c-0.218,0.396-0.396,0.707-0.531,0.932c-0.136,0.227-0.314,0.509-0.532,0.849
	c-0.055,0.057-0.247,0.312-0.575,0.764c-0.329,0.454-0.521,0.736-0.574,0.85c-0.382,0.677-0.819,1.328-1.312,1.951
	c-0.22,0.283-0.44,0.554-0.659,0.808c-0.22,0.256-0.467,0.582-0.74,0.977c-0.33,0.342-0.618,0.696-0.864,1.063
	c-0.246,0.369-0.534,0.723-0.864,1.063l-1.321,1.365c-0.277,0.229-0.538,0.512-0.785,0.852c-0.246,0.341-0.452,0.595-0.617,0.766
	c-0.111,0.115-0.276,0.271-0.496,0.47c-0.221,0.2-0.386,0.356-0.496,0.469c-0.165,0.171-0.4,0.399-0.703,0.684
	c-0.303,0.286-0.536,0.541-0.701,0.767c-0.331,0.286-0.579,0.527-0.743,0.726c-0.165,0.198-0.244,0.521-0.237,0.969
	c0.009,0.56,0.183,0.921,0.521,1.083c0.113,0.11,0.381,0.204,0.802,0.281c0.421,0.076,0.771,0.143,1.052,0.192
	c0.168-0.002,0.364,0.023,0.589,0.075c0.224,0.052,0.477,0.133,0.759,0.239C10.737,79.272,11.241,79.348,11.69,79.341"/>
<path d="M44.696,83.095c-0.089-0.334-0.191-0.557-0.304-0.667c-0.058-0.11-0.269-0.163-0.633-0.158
	c-0.364,0.006-0.797,0.013-1.3,0.021c-0.281,0.005-0.657,0.109-1.128,0.313c-0.473,0.204-0.877,0.308-1.212,0.313
	c-0.615,0.123-1.116,0.242-1.506,0.36c-0.39,0.119-0.89,0.322-1.5,0.611c-0.223,0.116-0.515,0.206-0.878,0.267
	c-0.363,0.063-0.656,0.123-0.878,0.181c-0.559,0.066-0.992,0.172-1.296,0.315c-0.306,0.145-0.598,0.248-0.877,0.308
	c-0.279,0.117-0.667,0.263-1.168,0.438s-0.892,0.266-1.171,0.271c-0.058-0.11-0.088-0.293-0.092-0.545
	c-0.004-0.251-0.007-0.404-0.008-0.461c0.051-0.279,0.061-0.518,0.031-0.714c-0.032-0.195-0.02-0.349,0.034-0.462
	c-0.004-0.28,0.032-0.63,0.11-1.051c0.077-0.421,0.083-0.827,0.022-1.218c-0.004-0.279-0.011-0.699-0.02-1.259
	c-0.009-0.559-0.073-1.033-0.191-1.425c-0.005-0.335-0.009-0.573-0.011-0.713c-0.002-0.139-0.004-0.265-0.006-0.377
	s-0.004-0.238-0.006-0.378c-0.002-0.139-0.006-0.348-0.01-0.629c-0.064-0.446-0.14-0.894-0.231-1.34
	c-0.091-0.445-0.281-0.862-0.566-1.25c-0.229-0.275-0.442-0.482-0.64-0.619c-0.198-0.136-0.354-0.259-0.467-0.37
	c-0.571-0.663-1.066-1.046-1.488-1.152c-0.421-0.104-0.939-0.096-1.552,0.025c-0.111,0.115-0.263,0.228-0.456,0.343
	c-0.195,0.116-0.346,0.287-0.454,0.511c-0.054,0.114-0.108,0.255-0.161,0.423c-0.054,0.113-0.122,0.24-0.204,0.381
	c-0.081,0.142-0.15,0.269-0.203,0.381c-0.548,0.793-0.839,1.833-0.874,3.12c-0.054,0.113-0.093,0.337-0.115,0.673
	c-0.024,0.336-0.088,0.645-0.195,0.927c-0.051,0.336-0.168,0.857-0.353,1.558c-0.185,0.703-0.329,1.308-0.433,1.813
	c0.003,0.168-0.023,0.365-0.074,0.589c-0.053,0.226-0.133,0.479-0.24,0.759c-0.108,0.283-0.188,0.563-0.238,0.844
	c-0.052,0.281-0.104,0.562-0.154,0.842c0.001,0.112-0.11,0.199-0.332,0.257c-0.223,0.06-0.489,0.121-0.795,0.181
	c-0.307,0.062-0.585,0.122-0.836,0.182s-0.376,0.118-0.375,0.174c-0.28,0.06-0.599,0.177-0.96,0.351
	c-0.362,0.174-0.765,0.293-1.211,0.355c-0.448,0.063-0.852,0.126-1.214,0.187c-0.364,0.063-0.684,0.151-0.961,0.269
	c-0.723,0.292-1.307,0.523-1.752,0.698c-0.446,0.176-0.915,0.519-1.41,1.03c-0.278,0.172-0.568,0.416-0.87,0.728
	c-0.303,0.313-0.535,0.667-0.697,1.061c-0.441,0.455-0.614,0.989-0.52,1.604c0.094,0.614,0.198,1.06,0.316,1.338
	c0.115,0.277,0.245,0.527,0.389,0.749c0.143,0.222,0.439,0.385,0.889,0.488c0.561,0.104,1.122,0.165,1.682,0.184
	c0.559,0.02,1.091-0.03,1.592-0.151c0.448-0.007,1.062-0.059,1.845-0.155c0.781-0.097,1.452-0.177,2.01-0.241
	c0.783-0.014,1.536-0.164,2.259-0.456c0.612-0.179,1.198-0.313,1.756-0.406s1.144-0.199,1.758-0.322
	c0.28-0.004,0.642-0.064,1.088-0.185c0.446-0.119,0.807-0.236,1.086-0.354c0.335-0.061,0.628-0.136,0.878-0.224
	c0.251-0.088,0.528-0.177,0.835-0.265c0.305-0.09,0.71-0.193,1.212-0.313s1.199-0.271,2.091-0.453
	c0.278-0.117,0.585-0.206,0.92-0.267c0.334-0.061,0.557-0.093,0.67-0.096c0.445-0.117,0.836-0.181,1.171-0.186
	c0.336-0.006,0.671-0.066,1.005-0.184c0.11-0.058,0.5-0.204,1.168-0.438s1.307-0.441,1.921-0.619
	c0.557-0.12,0.932-0.252,1.127-0.396c0.193-0.143,0.569-0.273,1.127-0.396c0.555-0.176,1.043-0.352,1.46-0.525
	c0.417-0.176,0.679-0.318,0.791-0.434c0.054-0.056,0.151-0.113,0.291-0.172c0.138-0.058,0.235-0.116,0.291-0.173
	c0.277-0.116,0.484-0.272,0.622-0.471c0.135-0.198,0.258-0.383,0.369-0.553c0.052-0.169,0.162-0.323,0.328-0.467
	c0.165-0.142,0.247-0.325,0.243-0.549c0.1-0.728,0.12-1.205,0.061-1.428C44.859,83.68,44.785,83.429,44.696,83.095"/>
<path d="M29.926,64.863c0.17,0.166,0.354,0.33,0.553,0.495c0.198,0.165,0.354,0.303,0.468,0.412
	c0.341,0.276,0.768,0.716,1.281,1.323c0.513,0.607,0.94,1.076,1.281,1.405c0.341,0.331,0.711,0.718,1.11,1.157
	c0.398,0.443,0.769,0.828,1.11,1.158c0.393,0.162,0.634,0.299,0.72,0.408c0.085,0.112,0.267,0.164,0.548,0.16
	c0.784,0.1,1.358,0.104,1.721,0.014c0.362-0.09,0.763-0.334,1.206-0.733c0.219-0.171,0.455-0.385,0.703-0.641
	c0.247-0.255,0.369-0.494,0.366-0.719c-0.008-0.503-0.185-1.046-0.53-1.628c-0.345-0.582-0.603-1.012-0.776-1.289
	c-0.343-0.441-0.77-0.911-1.282-1.406c-0.511-0.496-1.079-0.991-1.702-1.484c-1.134-0.876-2.235-1.445-3.301-1.71
	c-0.394-0.162-0.79-0.337-1.184-0.526c-0.395-0.189-0.732-0.282-1.011-0.277c-0.728,0.011-1.34,0.189-1.839,0.533
	c-0.498,0.344-0.742,0.796-0.733,1.354c0.007,0.449,0.139,0.838,0.396,1.169C29.288,64.37,29.587,64.646,29.926,64.863"/>
<path d="M68.664,67.527c-0.511-0.439-0.907-0.712-1.188-0.821c-0.282-0.105-0.605-0.227-0.971-0.362
	c-0.367-0.133-0.662-0.227-0.886-0.278c-0.45-0.104-0.955-0.195-1.515-0.271c-0.562-0.075-1.091,0.004-1.591,0.235
	c-0.166,0.116-0.458,0.247-0.875,0.392c-0.418,0.147-0.739,0.251-0.961,0.31c-0.447,0.12-0.891,0.28-1.335,0.482
	c-0.445,0.204-0.89,0.365-1.335,0.483c-0.261,0.109-0.623,0.259-1.078,0.443l0.314-0.943c0.269-0.675,0.497-1.226,0.687-1.648
	c0.189-0.422,0.336-0.802,0.444-1.14c0.213-0.618,0.428-1.182,0.644-1.689c0.215-0.507,0.403-1.068,0.561-1.688
	c0.157-0.674,0.229-1.401,0.217-2.187c-0.013-0.781-0.095-1.509-0.245-2.178c-0.151-0.669-0.344-1.309-0.576-1.922
	c-0.349-0.833-0.727-1.637-1.13-2.416c-0.458-0.607-0.888-1.23-1.289-1.868c-0.402-0.636-0.915-1.202-1.538-1.696
	c-0.286-0.331-0.527-0.579-0.726-0.744c-0.199-0.164-0.397-0.329-0.595-0.494c-0.2-0.165-0.327-0.274-0.383-0.33
	c-0.34-0.274-0.721-0.492-1.144-0.653c-0.422-0.161-1.106-0.066-2.051,0.285c-0.446,0.175-0.889,0.49-1.329,0.945
	c-0.44,0.455-0.657,0.906-0.649,1.353c0.012,0.784,0.133,1.355,0.363,1.715c0.228,0.361,0.401,0.652,0.517,0.873
	c0.116,0.279,0.247,0.612,0.394,1.001c0.145,0.39,0.277,0.723,0.394,1.001c0.118,0.39,0.165,0.74,0.143,1.047
	c-0.024,0.308-0.032,0.63-0.027,0.966c-0.101,0.729-0.174,1.443-0.218,2.144c-0.045,0.701-0.145,1.387-0.302,2.062
	c-0.054,0.169-0.133,0.52-0.235,1.053c-0.105,0.534-0.206,1.165-0.306,1.893c-0.105,0.451-0.182,0.899-0.23,1.348
	c-0.05,0.448-0.126,0.897-0.231,1.347c-0.204,1.235-0.37,2.244-0.497,3.03s-0.244,1.346-0.35,1.684
	c-0.052,0.281-0.104,0.589-0.154,0.926c-0.05,0.336-0.102,0.646-0.153,0.925c-0.051,0.282-0.089,0.576-0.111,0.885
	c-0.024,0.308-0.033,0.629-0.027,0.965c0.003,0.168,0.007,0.449,0.013,0.839c0.007,0.392,0.013,0.798,0.02,1.218
	c0.006,0.419,0.026,0.812,0.061,1.173c0.033,0.365,0.052,0.629,0.054,0.798c0.005,0.28,0.079,0.586,0.225,0.92
	c0.144,0.333,0.274,0.583,0.389,0.749c0.057,0.055,0.254,0.094,0.59,0.115c0.336,0.024,0.685,0.032,1.05,0.026
	c0.363-0.006,0.726-0.012,1.09-0.018c0.364-0.007,0.629-0.037,0.796-0.097c0.892-0.183,1.463-0.373,1.712-0.574
	c0.248-0.198,0.454-0.468,0.617-0.807c0.053-0.112,0.134-0.296,0.243-0.549c0.107-0.254,0.215-0.493,0.324-0.719
	c0.106-0.337,0.186-0.59,0.24-0.76c0.052-0.169,0.133-0.338,0.243-0.508c0.053-0.168,0.133-0.435,0.24-0.801
	c0.105-0.365,0.197-0.759,0.274-1.179c0.042-0.229,0.084-0.445,0.126-0.656c0.181-0.043,0.371-0.09,0.575-0.144
	c0.613-0.122,1.213-0.243,1.799-0.365c0.586-0.121,0.99-0.211,1.213-0.271c0.67-0.065,1.424-0.162,2.262-0.288
	c0.278-0.06,0.502-0.078,0.67-0.053c0.168,0.026,0.364,0.036,0.588,0.032l1.343-0.021c0.28,0.053,0.505,0.092,0.673,0.115
	c0.169,0.027,0.392,0.036,0.672,0.032c0.28-0.005,0.617,0.046,1.01,0.151c0.393,0.106,0.73,0.213,1.012,0.319
	c0.282,0.108,0.493,0.216,0.636,0.326c0.14,0.11,0.434,0.105,0.88-0.014c0.557-0.121,0.943-0.491,1.158-1.11
	c0.109-0.17,0.162-0.366,0.158-0.591c-0.004-0.222-0.006-0.391-0.008-0.503c-0.007-0.447-0.013-0.797-0.017-1.049
	s-0.122-0.599-0.352-1.043C69.517,68.354,69.175,67.967,68.664,67.527"/>
<path d="M94.132,71.705c0.049-0.267,0.127-0.604,0.236-1.008c0.108-0.404,0.158-0.67,0.15-0.803
	c0.099-0.535,0.185-1.055,0.254-1.556c0.069-0.5,0.125-0.916,0.172-1.251c0.053-0.201,0.102-0.485,0.146-0.853
	c0.043-0.366,0.059-0.681,0.043-0.946c0.154-0.736,0.288-1.521,0.403-2.357c0.114-0.834,0.215-1.617,0.304-2.352
	c0.045-0.334,0.104-0.752,0.172-1.252c0.069-0.501,0.094-0.915,0.074-1.246c0.009-0.927-0.071-1.684-0.238-2.269
	c-0.169-0.586-0.499-1.128-0.992-1.629c-0.094-0.456-0.322-0.938-0.683-1.447c-0.363-0.507-0.746-0.814-1.149-0.924
	c-0.149-0.254-0.513-0.514-1.09-0.777c-0.579-0.263-0.935-0.423-1.071-0.481c-0.676-0.223-1.348-0.381-2.015-0.474
	c-0.668-0.091-1.463-0.109-2.386-0.054c-0.396,0.024-0.729,0.012-0.996-0.038c-0.268-0.05-0.468-0.072-0.599-0.063
	c-0.335-0.045-0.681-0.024-1.039,0.063c-0.359,0.088-0.637,0.137-0.835,0.15c-0.136-0.058-0.369-0.077-0.698-0.058
	c-0.331,0.021-0.561,0.035-0.693,0.042c-0.264,0.017-0.478,0.047-0.64,0.089c-0.163,0.044-0.407,0.108-0.733,0.194
	c-0.133,0.007-0.329,0.053-0.587,0.134c-0.26,0.083-0.456,0.127-0.588,0.135c-0.193,0.079-0.375,0.122-0.538,0.133
	c-0.166,0.009-0.312,0.052-0.439,0.126c-0.387,0.156-0.743,0.31-1.065,0.461c-0.322,0.153-0.644,0.304-0.965,0.456
	c-0.388,0.157-0.755,0.378-1.102,0.663c-0.346,0.286-0.677,0.571-0.99,0.854c-0.253,0.213-0.5,0.511-0.74,0.889
	c-0.243,0.379-0.422,0.705-0.537,0.975c-0.166,0.541-0.223,0.992-0.167,1.351c0.055,0.361,0.123,0.672,0.206,0.932
	c0.163,0.521,0.366,0.872,0.61,1.055c0.242,0.184,0.5,0.334,0.772,0.45c0.271,0.117,0.605,0.146,0.998,0.088
	c0.394-0.056,0.686-0.156,0.875-0.301c0.19-0.144,0.405-0.422,0.645-0.833c0.123-0.141,0.294-0.316,0.515-0.528
	c0.217-0.212,0.389-0.387,0.514-0.528c0.19-0.143,0.543-0.297,1.063-0.462c0.259-0.081,0.47-0.16,0.631-0.235
	c0.161-0.076,0.404-0.157,0.73-0.244c0.396-0.024,0.851-0.151,1.367-0.381c0.334,0.046,0.682,0.058,1.045,0.036
	c0.362-0.022,0.675-0.041,0.941-0.057c0.197-0.012,0.493-0.046,0.887-0.104c0.393-0.057,0.822-0.065,1.289-0.028
	c0.399,0.042,0.783,0.101,1.152,0.178c0.368,0.077,0.621,0.145,0.757,0.202c0.404,0.109,0.647,0.293,0.729,0.552
	c0.148,0.256,0.244,0.747,0.288,1.473c0.028,0.462-0.024,0.979-0.155,1.548c-0.131,0.57-0.22,1.022-0.264,1.356
	c-0.098,0.602-0.188,1.004-0.275,1.208c-0.087,0.204-0.183,0.542-0.286,1.011c-0.055,0.201-0.139,0.454-0.252,0.76
	c-0.115,0.305-0.165,0.556-0.153,0.754c-0.125,0.141-0.19,0.409-0.199,0.806c-0.01,0.398-0.074,0.7-0.193,0.906
	c-0.063,0.071-0.103,0.222-0.122,0.454c-0.02,0.233-0.085,0.519-0.196,0.855l-0.324,1.211c-0.104,0.471-0.212,0.874-0.324,1.213
	c-0.112,0.339-0.222,0.708-0.329,1.11c-0.113,0.339-0.221,0.728-0.327,1.163c-0.106,0.438-0.213,0.857-0.321,1.26
	c-0.327,1.146-0.567,2.104-0.719,2.873c-0.151,0.772-0.328,1.693-0.527,2.764c-0.054,0.202-0.106,0.454-0.153,0.754
	c-0.048,0.301-0.1,0.552-0.153,0.754c-0.108,0.404-0.166,0.822-0.172,1.252c-0.008,0.431-0.066,0.847-0.173,1.252
	c-0.117,0.271-0.149,0.555-0.097,0.849c0.05,0.295,0.018,0.579-0.097,0.851c-0.232,0.545-0.332,1.08-0.3,1.606
	c0.024,0.396-0.004,0.763-0.082,1.098c-0.079,0.337-0.109,0.67-0.089,0.999l0.186,3.066c0.012,0.197,0.035,0.313,0.071,0.343
	c0.034,0.032,0.055,0.08,0.059,0.146c0.439,0.703,0.885,0.973,1.339,0.812c0.453-0.158,0.944-0.256,1.472-0.286l1.386-0.085
	c0.325-0.085,0.554-0.115,0.689-0.092c0.133,0.026,0.396-0.007,0.788-0.097c0.33-0.021,0.655-0.105,0.978-0.259
	c0.321-0.15,0.573-0.365,0.755-0.642c0.388-0.154,0.669-0.421,0.845-0.796c0.176-0.374,0.319-0.729,0.432-1.067
	c0.625-1.692,0.892-3.298,0.8-4.815c-0.008-0.132,0.001-0.248,0.028-0.349c0.027-0.103,0.038-0.218,0.029-0.351l-0.042-0.691
	c-0.011-0.198,0.008-0.398,0.063-0.601c0.199-1.069,0.427-2.226,0.683-3.467c0.256-1.24,0.455-2.327,0.597-3.264
	c0.061-0.068,0.088-0.169,0.08-0.303c-0.016-0.263,0.005-0.463,0.064-0.6c0.095-0.601,0.191-1.186,0.291-1.755
	C93.933,72.793,94.031,72.241,94.132,71.705"/>
<path d="M133.463,72.721c0.081-0.218,0.153-0.46,0.216-0.73c0.06-0.321,0.087-0.561,0.08-0.718c0.026-0.212,0.038-0.399,0.031-0.556
	c-0.007-0.158-0.013-0.288-0.017-0.394c-0.057-0.47-0.183-0.866-0.38-1.191c-0.198-0.325-0.408-0.53-0.631-0.617
	c-0.114-0.096-0.227-0.15-0.337-0.168c-0.11-0.017-0.224-0.072-0.337-0.168c-0.151-0.093-0.292-0.172-0.423-0.24
	c-0.132-0.067-0.271-0.146-0.423-0.239c-0.187-0.089-0.328-0.169-0.422-0.24c-0.095-0.07-0.236-0.149-0.422-0.239
	c-0.074,0.006-0.186-0.036-0.336-0.129c-0.076-0.046-0.132-0.094-0.171-0.144c-0.265-0.186-0.598-0.264-0.999-0.228
	c-0.44-0.015-0.787,0.042-1.037,0.169c-0.252,0.128-0.485,0.253-0.7,0.377c-0.178,0.122-0.329,0.214-0.455,0.276
	c-0.126,0.064-0.277,0.156-0.455,0.276c-0.286,0.183-0.563,0.326-0.835,0.428c-0.27,0.104-0.496,0.189-0.676,0.257
	c-0.324,0.135-0.595,0.237-0.812,0.309c-0.182,0.069-0.344,0.136-0.486,0.201c-0.145,0.064-0.235,0.099-0.271,0.102
	c-0.214,0.125-0.402,0.22-0.564,0.286c-0.162,0.068-0.316,0.134-0.458,0.198c-0.075,0.007-0.164,0.027-0.273,0.063
	c-0.107,0.036-0.2,0.058-0.272,0.063c-0.29,0.078-0.572,0.34-0.847,0.785c-0.068,0.111-0.107,0.26-0.118,0.444
	c-0.012,0.187-0.031,0.358-0.061,0.519c-0.032,0.109-0.044,0.255-0.036,0.438c0.008,0.186,0.014,0.329,0.019,0.434
	c0.009,0.21,0.08,0.388,0.215,0.535c0.134,0.146,0.257,0.24,0.369,0.282c0.075,0.047,0.168,0.079,0.278,0.096
	s0.203,0.048,0.279,0.094c0.109-0.01,0.238,0.006,0.387,0.045c0.297,0.08,0.48,0.116,0.555,0.11c0.147,0.04,0.342,0.075,0.582,0.106
	c0.238,0.032,0.432,0.041,0.578,0.028c0.401-0.034,0.694-0.033,0.88,0.003c0.184,0.037,0.477,0.037,0.88,0.002l1.424-0.124
	c0.292-0.025,0.521-0.018,0.688,0.019c0.167,0.039,0.324,0.078,0.473,0.117c0.297,0.08,0.583,0.134,0.859,0.162
	c0.275,0.029,0.542,0.06,0.801,0.088c0.184,0.037,0.35,0.049,0.497,0.036c0.145-0.013,0.291-0.025,0.438-0.038
	c0.365-0.032,0.637-0.082,0.818-0.149c0.108-0.011,0.273-0.037,0.49-0.083c0.219-0.046,0.436-0.13,0.649-0.255
	c0.071-0.058,0.134-0.091,0.189-0.095c0.055-0.005,0.116-0.037,0.188-0.096C133.249,73.108,133.379,72.938,133.463,72.721"/>
<path d="M107.555,52.533c0.164-0.012,0.358,0.041,0.584,0.156c0.28,0.113,0.516,0.427,0.706,0.942
	c0.248,0.577,0.467,1.092,0.655,1.54c0.187,0.45,0.378,0.966,0.571,1.547c0.122,0.257,0.249,0.595,0.381,1.015
	c0.131,0.423,0.201,0.73,0.212,0.929l0.158,3.165c0.011,0.197,0.006,0.382-0.013,0.548c-0.021,0.167-0.024,0.349-0.015,0.547
	c0.026,0.529,0.043,1.139,0.052,1.833c0.006,0.695-0.031,1.31-0.113,1.845c-0.069,0.8-0.132,1.467-0.188,2
	c-0.056,0.535-0.125,1.069-0.208,1.604c-0.09,0.403-0.164,0.823-0.225,1.257c-0.061,0.436-0.133,0.921-0.215,1.456
	c-0.042,0.268-0.105,0.638-0.191,1.105c-0.087,0.471-0.179,0.843-0.274,1.113c-0.275,1.079-0.453,1.919-0.532,2.521
	c-0.08,0.602-0.18,1.304-0.305,2.106c-0.048,0.138-0.062,0.402-0.042,0.798c0.009,0.198-0.011,0.365-0.057,0.5l0.139,2.771
	c0.027,0.529,0.158,0.966,0.396,1.312c0.236,0.349,0.499,0.677,0.79,0.985c0.28,0.113,0.615,0.22,1.005,0.323
	c0.39,0.104,0.725,0.213,1.005,0.324c0.335,0.108,0.747,0.094,1.233-0.04c0.488-0.136,0.842-0.178,1.064-0.129
	c0.66,0.02,1.347-0.494,2.064-1.541c0.157-0.143,0.352-0.389,0.58-0.737c0.23-0.348,0.391-0.689,0.484-1.028
	c0.197-0.412,0.405-0.938,0.62-1.584c0.215-0.644,0.39-1.27,0.523-1.876c0.217-1.14,0.32-1.81,0.311-2.008l-0.005-0.1
	c0.086-0.469,0.188-0.89,0.307-1.263c0.118-0.372,0.172-0.69,0.159-0.956c0.082-0.535,0.204-1.105,0.366-1.714
	c0.16-0.607,0.233-1.076,0.217-1.407c0.128-0.735,0.192-1.337,0.198-1.801c0.003-0.463,0.02-0.961,0.049-1.493
	c-0.004-0.064,0.013-0.265,0.052-0.6c0.037-0.333,0.056-0.533,0.052-0.599c-0.016-0.329-0.004-0.611,0.039-0.848
	c0.043-0.233,0.084-0.518,0.122-0.853c0.048-0.137,0.077-0.369,0.089-0.702c0.012-0.331,0.036-0.631,0.078-0.899
	c-0.003-0.064,0-0.248,0.014-0.547c0.013-0.299,0.017-0.48,0.014-0.547c-0.017-0.329-0.006-0.661,0.033-0.996
	c0.036-0.333,0.048-0.664,0.031-0.995l-0.127-0.884c-0.22-1.109-0.499-2.28-0.836-3.514c-0.13-0.389-0.23-0.761-0.303-1.12
	c-0.074-0.357-0.173-0.697-0.299-1.02c-0.071-0.326-0.168-0.599-0.288-0.823c-0.122-0.223-0.242-0.429-0.361-0.619
	c-0.072-0.325-0.198-0.664-0.381-1.015c-0.182-0.35-0.335-0.653-0.457-0.91c-0.3-0.507-0.586-0.982-0.854-1.427
	c-0.27-0.442-0.604-0.815-1.003-1.118c-0.227-0.115-0.438-0.249-0.639-0.4c-0.2-0.15-0.387-0.319-0.561-0.505
	c-0.287-0.243-0.653-0.415-1.097-0.516c-0.445-0.099-0.833-0.17-1.165-0.212l-1.477,0.108c-0.603,0.044-1.063,0.144-1.385,0.3
	c-0.485,0.168-0.94,0.433-1.36,0.794c-0.422,0.363-0.729,0.815-0.92,1.358c-0.097,0.272-0.168,0.509-0.211,0.71
	c-0.045,0.203-0.061,0.436-0.048,0.699c0.017,0.331,0.099,0.606,0.247,0.826C107.151,52.448,107.336,52.549,107.555,52.533"/>
<path d="M157.689,70.676c0.127-0.399,0.184-0.749,0.166-1.05c0.106-0.246,0.214-0.465,0.324-0.652s0.216-0.434,0.319-0.741
	c0.096-0.427,0.178-0.839,0.246-1.236c0.067-0.395,0.149-0.776,0.251-1.144c0.105-0.247,0.165-0.522,0.178-0.825
	c0.013-0.302,0.04-0.604,0.084-0.909c0.092-0.486,0.173-0.928,0.241-1.324c0.066-0.396,0.122-0.745,0.166-1.051
	c0.094-0.427,0.172-0.929,0.229-1.506c0.059-0.575,0.104-1.075,0.141-1.5c0.042-0.303,0.053-0.649,0.03-1.042
	c-0.021-0.39-0.046-0.796-0.069-1.217c-0.038-0.66-0.171-1.406-0.4-2.238c-0.045-0.78-0.239-1.524-0.58-2.228
	c-0.067-0.116-0.183-0.275-0.345-0.478c-0.162-0.201-0.277-0.359-0.344-0.477c-0.014-0.24-0.25-0.678-0.708-1.317
	c-0.132-0.173-0.341-0.416-0.63-0.732c-0.289-0.314-0.59-0.523-0.896-0.627c-0.187-0.109-0.496-0.227-0.924-0.353
	c-0.43-0.125-0.767-0.212-1.01-0.259c-0.429-0.096-0.99-0.169-1.687-0.22c-0.697-0.05-1.371,0.004-2.024,0.162
	c-0.956,0.176-1.729,0.37-2.319,0.585c-0.294,0.139-0.633,0.263-1.018,0.375c-0.387,0.113-0.638,0.204-0.754,0.27
	c-0.121,0.006-0.326,0.095-0.618,0.261c-0.292,0.168-0.469,0.253-0.527,0.257c-0.588,0.275-1.115,0.547-1.582,0.814
	c-0.294,0.138-0.644,0.34-1.05,0.603c-0.408,0.265-0.813,0.56-1.216,0.884c-0.288,0.258-0.742,0.721-1.367,1.39
	c-0.626,0.669-0.993,1.097-1.103,1.284c-0.333,0.503-0.485,0.993-0.458,1.474c-0.104,0.308-0.178,0.598-0.222,0.872
	c-0.045,0.274,0.001,0.559,0.14,0.852c0.268,0.468,0.709,0.804,1.324,1.009c0.246,0.107,0.494,0.213,0.742,0.319
	c0.247,0.107,0.55,0.119,0.907,0.038c0.356-0.079,0.803-0.182,1.339-0.303c0.536-0.122,1.065-0.347,1.589-0.68
	c0.113-0.126,0.487-0.435,1.122-0.923c0.635-0.489,1.066-0.86,1.293-1.114c0.287-0.257,0.613-0.608,0.979-1.052
	c0.366-0.442,0.636-0.76,0.806-0.951c0.111-0.126,0.313-0.303,0.603-0.531c0.287-0.228,0.548-0.408,0.782-0.543
	c0.471-0.208,0.93-0.354,1.377-0.441c0.447-0.085,0.916-0.053,1.408,0.1c0.187,0.111,0.424,0.308,0.711,0.593
	c0.289,0.285,0.497,0.514,0.628,0.687c0.13,0.173,0.202,0.366,0.214,0.575c0.012,0.212,0.055,0.435,0.129,0.671
	c0.018,0.302,0.033,0.572,0.047,0.812c0.015,0.24-0.03,0.514-0.134,0.821c-0.053,0.125-0.089,0.292-0.105,0.504
	c-0.021,0.213-0.054,0.41-0.103,0.594c-0.047,0.244-0.123,0.49-0.229,0.736c-0.052,0.184-0.101,0.368-0.149,0.552
	c-0.05,0.183-0.153,0.492-0.309,0.922l-0.479,1.113c-0.163,0.311-0.323,0.682-0.479,1.113c-0.156,0.431-0.372,0.865-0.648,1.303
	c-0.33,0.562-0.591,1.015-0.782,1.355c-0.191,0.345-0.505,0.92-0.939,1.729c-0.163,0.311-0.341,0.639-0.532,0.979
	c-0.192,0.344-0.339,0.668-0.442,0.976c-0.05,0.184-0.185,0.463-0.403,0.837c-0.111,0.187-0.274,0.499-0.489,0.933
	c-0.216,0.436-0.35,0.744-0.399,0.929c-0.053,0.124-0.159,0.369-0.318,0.74c-0.16,0.371-0.268,0.619-0.319,0.742
	c-0.114,0.128-0.265,0.377-0.454,0.75c-0.19,0.373-0.311,0.65-0.359,0.835c-0.113,0.127-0.249,0.376-0.409,0.747
	c-0.107,0.248-0.327,0.592-0.664,1.033c-0.336,0.442-0.619,0.79-0.845,1.043c-0.163,0.312-0.4,0.656-0.709,1.036
	c-0.311,0.379-0.604,0.789-0.88,1.226c-0.162,0.313-0.358,0.594-0.584,0.849c-0.227,0.255-0.394,0.506-0.5,0.752
	c-0.273,0.499-0.565,0.922-0.876,1.271c-0.312,0.35-0.606,0.744-0.883,1.181c-0.053,0.124-0.163,0.297-0.332,0.517
	c-0.168,0.222-0.334,0.487-0.496,0.797c-0.11,0.188-0.22,0.39-0.328,0.607c-0.107,0.218-0.244,0.451-0.41,0.701
	c-0.055,0.125-0.15,0.312-0.284,0.56c-0.139,0.249-0.202,0.434-0.195,0.554c-0.213,0.495-0.399,0.913-0.561,1.253
	c-0.161,0.341-0.3,0.576-0.412,0.702c-0.104,0.309-0.222,0.632-0.352,0.97c-0.132,0.34-0.219,0.662-0.262,0.965
	c-0.107,0.248-0.109,0.444-0.01,0.589c0.098,0.146,0.153,0.339,0.168,0.578c0.13,0.174,0.23,0.349,0.301,0.525
	s0.169,0.322,0.297,0.436c0.13,0.174,0.366,0.341,0.707,0.502c0.34,0.161,0.641,0.386,0.898,0.672
	c0.063,0.057,0.154,0.082,0.275,0.075c0.119-0.008,0.241,0.017,0.365,0.068c0.25,0.167,0.498,0.274,0.742,0.319
	c0.3-0.018,0.567-0.091,0.801-0.228c0.233-0.133,0.496-0.268,0.791-0.406c0.056-0.063,0.114-0.111,0.173-0.146
	c0.058-0.034,0.114-0.082,0.172-0.146c0.112-0.127,0.211-0.252,0.294-0.379c0.084-0.125,0.18-0.281,0.291-0.47
	c0.282-0.316,0.539-0.572,0.771-0.767c0.228-0.194,0.516-0.451,0.859-0.773c0.286-0.257,0.567-0.604,0.845-1.044
	c0.275-0.437,0.609-0.908,1.004-1.414c0.276-0.437,0.555-0.814,0.839-1.134c0.283-0.317,0.561-0.725,0.834-1.224
	c0.347-0.261,0.674-0.596,0.983-1.006c0.307-0.409,0.601-0.804,0.881-1.182c0.112-0.126,0.168-0.234,0.162-0.326
	c-0.005-0.09,0.049-0.196,0.163-0.324c0.225-0.254,0.465-0.57,0.714-0.946c0.25-0.376,0.515-0.722,0.8-1.041
	c0.282-0.317,0.518-0.677,0.707-1.081c0.187-0.402,0.366-0.699,0.536-0.89c0.222-0.313,0.401-0.611,0.537-0.891
	c0.134-0.278,0.343-0.576,0.627-0.895c0.052-0.123,0.12-0.264,0.202-0.419c0.08-0.154,0.178-0.295,0.292-0.423
	c0.452-0.51,0.84-1.135,1.158-1.876c0.113-0.126,0.21-0.284,0.29-0.47c0.079-0.186,0.173-0.372,0.284-0.559
	c0.109-0.188,0.212-0.494,0.309-0.922c0.096-0.427,0.2-0.704,0.313-0.832c0.284-0.317,0.476-0.629,0.579-0.938
	C157.417,71.431,157.562,71.075,157.689,70.676"/>
<path d="M192.09,87.738c-0.142-0.354-0.28-0.662-0.415-0.927c-0.136-0.263-0.271-0.511-0.404-0.744
	c-0.139-0.294-0.285-0.495-0.441-0.608c-0.157-0.111-0.33-0.221-0.518-0.332c-0.308-0.104-0.735-0.214-1.285-0.333
	s-0.978-0.23-1.285-0.333c-0.184-0.05-0.336-0.072-0.456-0.065c-0.12,0.008-0.272-0.014-0.455-0.063
	c-0.306-0.042-0.579-0.087-0.822-0.133c-0.244-0.046-0.49-0.123-0.737-0.229c0.054-0.124,0.106-0.247,0.16-0.372
	c0.053-0.123,0.076-0.244,0.069-0.366c-0.01-0.18-0.001-0.542,0.027-1.087c0.029-0.544,0.009-0.903-0.062-1.081
	c-0.074-0.235-0.203-0.38-0.386-0.43c-0.185-0.049-0.342-0.162-0.473-0.335c-0.204-0.41-0.614-0.718-1.228-0.924
	c-0.129-0.113-0.274-0.285-0.438-0.519c-0.165-0.23-0.34-0.401-0.526-0.512c-0.438-0.275-0.871-0.448-1.296-0.514
	c-0.427-0.066-0.688,0.116-0.783,0.543c-0.054,0.124-0.131,0.354-0.232,0.69c-0.102,0.34-0.147,0.567-0.141,0.688
	c-0.094,0.489-0.169,0.99-0.23,1.506c-0.061,0.516-0.135,1.079-0.22,1.686c-0.104,0.309-0.188,0.644-0.258,1.01
	c-0.07,0.366-0.157,0.703-0.259,1.01l-0.319,0.742c-0.108,0.247-0.197,0.509-0.271,0.784s-0.163,0.567-0.267,0.875
	s-0.207,0.6-0.311,0.877c-0.106,0.276-0.214,0.479-0.327,0.605c-0.217,0.437-0.453,1.052-0.708,1.851
	c-0.256,0.799-0.425,1.531-0.507,2.199c-0.104,0.309-0.207,0.601-0.312,0.877c-0.104,0.278-0.177,0.599-0.216,0.963
	c-0.043,0.305-0.069,0.652-0.076,1.045c-0.009,0.393,0.005,0.857,0.035,1.398c0.028,0.482,0.129,0.943,0.306,1.385
	c0.176,0.442,0.472,0.593,0.886,0.447c0.307,0.104,0.773,0.09,1.399-0.036s1.086-0.227,1.384-0.305
	c0.12-0.007,0.209-0.027,0.269-0.061c0.058-0.033,0.146-0.055,0.268-0.062c0.53-0.211,1.214-0.37,2.054-0.479
	c0.649-0.22,1.241-0.418,1.773-0.601c0.533-0.18,1.063-0.407,1.589-0.679c0.475-0.147,0.933-0.31,1.374-0.486
	c0.443-0.175,0.807-0.393,1.094-0.649c0.405-0.265,0.781-0.558,1.125-0.879s0.687-0.643,1.029-0.965
	c0.227-0.253,0.409-0.489,0.548-0.71c0.138-0.218,0.35-0.456,0.638-0.714l0.091-0.006c0.228-0.194,0.41-0.445,0.544-0.755
	c0.132-0.308,0.222-0.585,0.269-0.829l-0.14-2.434c-0.01-0.182-0.034-0.315-0.069-0.403
	C192.111,87.872,192.094,87.799,192.09,87.738 M185.152,92.93c-0.354,0.143-0.56,0.245-0.614,0.308
	c-0.118,0.067-0.308,0.184-0.569,0.349c-0.261,0.166-0.479,0.285-0.657,0.354c-0.295,0.14-0.578,0.186-0.852,0.141
	c-0.273-0.044-0.442-0.066-0.5-0.063c-0.302,0.018-0.458-0.093-0.472-0.335c-0.004-0.059,0.006-0.148,0.028-0.272
	c0.023-0.121,0.034-0.212,0.031-0.272c-0.011-0.181,0.065-0.425,0.229-0.736c0.105-0.246,0.166-0.492,0.184-0.734
	c0.016-0.241,0.078-0.457,0.188-0.645c0.046-0.242,0.134-0.564,0.262-0.965c0.127-0.398,0.219-0.66,0.271-0.784
	c0.226-0.254,0.436-0.297,0.626-0.127c0.13,0.175,0.242,0.288,0.336,0.344c0.093,0.055,0.206,0.199,0.342,0.432
	c0.134,0.234,0.251,0.453,0.354,0.658c0.102,0.206,0.218,0.395,0.349,0.567l0.507,0.967C185.344,92.589,185.33,92.861,185.152,92.93
	"/>
<path d="M201.089,62.034c-0.092-0.144-0.145-0.249-0.159-0.313c-0.018-0.065-0.07-0.17-0.159-0.315
	c-0.122-0.273-0.25-0.521-0.386-0.738c-0.136-0.216-0.271-0.433-0.406-0.649c-0.195-0.23-0.396-0.43-0.603-0.603
	c-0.208-0.171-0.451-0.319-0.73-0.446c-0.281-0.125-0.669-0.185-1.164-0.176c-0.19,0.019-0.424,0.026-0.701,0.023
	c-0.278-0.001-0.577,0.022-0.896,0.072c-0.7,0.085-1.425,0.149-2.176,0.192c-0.752,0.043-1.288,0.089-1.607,0.14
	c-0.439,0.022-0.894,0.057-1.367,0.101c-0.474,0.046-0.931,0.079-1.368,0.103c-0.188,0.018-0.51,0.067-0.961,0.148
	c-0.186,0.033-0.346,0.065-0.501,0.095c0.033-0.321,0.067-0.644,0.117-0.967c0.065-0.425,0.088-0.818,0.066-1.18
	c0.093-0.487,0.145-1.169,0.155-2.044c0.009-0.874,0.059-1.586,0.148-2.134c0.042-0.303,0.075-0.787,0.098-1.453
	c0.021-0.664,0.014-1.326-0.023-1.988c-0.035-0.6-0.111-1.138-0.229-1.615c-0.117-0.475-0.179-0.773-0.187-0.894
	c-0.081-0.357-0.236-0.694-0.466-1.013c-0.229-0.318-0.415-0.655-0.556-1.008c-0.067-0.117-0.184-0.32-0.351-0.613
	c-0.168-0.291-0.366-0.597-0.596-0.915c-0.229-0.318-0.441-0.593-0.636-0.824c-0.194-0.229-0.322-0.343-0.381-0.339
	c-0.128-0.113-0.332-0.282-0.617-0.508c-0.284-0.223-0.551-0.389-0.797-0.496c-0.248-0.106-0.797-0.226-1.649-0.358
	c-0.184-0.049-0.475-0.138-0.874-0.266c-0.399-0.127-0.69-0.216-0.875-0.267c-0.309-0.102-0.718-0.153-1.229-0.155
	c-0.513,0-0.798,0.032-0.854,0.094c-0.061,0.004-0.149,0.04-0.266,0.106c-0.118,0.067-0.236,0.104-0.354,0.111
	c-0.596,0.156-0.967,0.508-1.116,1.059c-0.09,0.548-0.049,0.983,0.121,1.305c0.168,0.322,0.292,0.631,0.369,0.928
	c0.004,0.06,0.054,0.419,0.152,1.076c0.098,0.659,0.158,1.167,0.178,1.528c0.008,0.121,0.039,0.42,0.098,0.899
	c0.057,0.48,0.074,1.051,0.053,1.715c-0.029,0.544-0.087,1.106-0.174,1.684c-0.088,0.578-0.123,1.017-0.105,1.317
	c-0.026,0.605-0.073,1.089-0.143,1.455c-0.069,0.366-0.096,0.7-0.078,1c-0.047,0.244-0.071,0.607-0.073,1.089
	c-0.003,0.484-0.029,0.816-0.078,0.999c-0.101,0.368-0.156,0.688-0.171,0.96c-0.015,0.272-0.044,0.562-0.087,0.864
	c-0.043,0.305-0.069,0.608-0.083,0.91c-0.014,0.303-0.041,0.604-0.083,0.909l-0.192,1.368c-0.051,0.183-0.084,0.382-0.103,0.593
	c-0.019,0.213-0.052,0.41-0.101,0.594c-0.051,0.184-0.1,0.383-0.147,0.596c-0.048,0.216-0.097,0.413-0.146,0.598
	c-0.146,0.61-0.258,1.28-0.336,2.009c-0.08,0.728-0.14,1.273-0.178,1.638l-0.076,1.813c-0.026,0.604,0.031,1.1,0.175,1.482
	c0.143,0.386,0.278,0.662,0.41,0.835c0.137,0.295,0.26,0.573,0.364,0.839c0.106,0.266,0.222,0.455,0.35,0.568
	c0.127,0.114,0.254,0.228,0.381,0.339c0.127,0.115,0.285,0.227,0.472,0.335c0.123,0.055,0.26,0.076,0.411,0.067
	c0.149-0.008,0.286,0.014,0.411,0.067c0.243,0.047,0.481,0.003,0.715-0.133c0.233-0.133,0.5-0.21,0.802-0.227l0.902-0.052
	c0.418-0.024,0.752-0.013,0.996,0.033c0.243,0.048,0.481,0.004,0.716-0.132c0.293-0.137,0.569-0.317,0.828-0.545
	c0.258-0.225,0.43-0.642,0.516-1.25c0.053-0.124,0.145-0.371,0.274-0.74c0.129-0.368,0.245-0.705,0.349-1.015
	c0.163-0.31,0.299-0.559,0.409-0.747c0.109-0.187,0.245-0.466,0.404-0.837c0.103-0.307,0.221-0.601,0.356-0.88
	c0.134-0.279,0.227-0.51,0.276-0.694c0.046-0.243,0.118-0.563,0.216-0.962c0.005-0.021,0.016-0.038,0.021-0.058
	c0.191,0.036,0.394,0.056,0.608,0.059c0.431,0.007,0.858,0.029,1.282,0.064c0.293,0.067,0.583,0.15,0.87,0.248
	c0.286,0.097,0.488,0.158,0.605,0.186c0.47,0.107,0.944,0.125,1.426,0.05c0.479-0.073,0.938-0.122,1.377-0.146
	c0.319-0.048,0.913-0.144,1.779-0.284c0.866-0.139,1.458-0.234,1.78-0.285c0.32-0.049,0.641-0.098,0.961-0.147
	c0.32-0.051,0.611-0.105,0.873-0.169c0.406-0.153,0.772-0.271,1.101-0.351c0.326-0.078,0.67-0.229,1.031-0.456l0.434-0.271
	c0.13-0.031,0.257-0.11,0.379-0.237c0.122-0.125,0.254-0.234,0.398-0.325c0.145-0.09,0.308-0.393,0.487-0.906
	C201.376,62.657,201.341,62.278,201.089,62.034"/>
<path d="M166.603,84.906c-0.14-0.323-0.28-0.662-0.42-1.017l-0.688-0.955l-0.809-1.49c-0.132-0.175-0.248-0.362-0.35-0.568
	c-0.103-0.205-0.189-0.396-0.259-0.573c-0.132-0.173-0.246-0.332-0.345-0.478c-0.099-0.145-0.186-0.336-0.258-0.573
	c-0.132-0.173-0.268-0.421-0.405-0.745c-0.14-0.323-0.339-0.628-0.595-0.916c-0.198-0.289-0.394-0.534-0.585-0.734
	c-0.193-0.2-0.382-0.354-0.57-0.466c-0.187-0.108-0.465-0.229-0.834-0.358c-0.369-0.128-0.737-0.213-1.101-0.253
	c-0.97-0.065-1.65,0.154-2.042,0.66c-0.224,0.314-0.267,0.634-0.126,0.957c0.139,0.322,0.336,0.599,0.59,0.824
	c0.19,0.17,0.354,0.418,0.495,0.74c0.139,0.324,0.313,0.721,0.521,1.192c0.147,0.474,0.28,0.948,0.398,1.424
	s0.279,0.949,0.487,1.419c0.067,0.118,0.14,0.308,0.215,0.576c0.075,0.267,0.146,0.459,0.215,0.575
	c0.144,0.413,0.273,0.828,0.388,1.243c0.114,0.416,0.243,0.831,0.388,1.244l0.649,1.862c0.066,0.118,0.12,0.25,0.159,0.397
	c0.038,0.149,0.089,0.253,0.152,0.308c0.138,0.295,0.304,0.541,0.495,0.741c0.193,0.2,0.533,0.377,1.025,0.528
	c0.247,0.107,0.473,0.109,0.679,0.006c0.205-0.102,0.396-0.218,0.568-0.349c0.177-0.07,0.352-0.17,0.524-0.302
	c0.175-0.129,0.378-0.261,0.611-0.397c0.343-0.319,0.622-0.697,0.839-1.133c0.159-0.371,0.287-0.754,0.387-1.153
	c0.097-0.396,0.042-0.829-0.165-1.301C166.819,85.542,166.741,85.23,166.603,84.906"/>
<path d="M144.557,11.157c0.277,0.06,0.688,0.307,1.233,0.743c0.347,0.278,0.682,0.648,1.003,1.108
	c0.322,0.46,0.586,0.816,0.795,1.061c0.366,0.457,0.594,0.781,0.685,0.974c0.089,0.193,0.267,0.479,0.534,0.854
	c0.108,0.169,0.234,0.392,0.379,0.669c0.143,0.278,0.289,0.475,0.438,0.594c0.021,0.18,0.168,0.399,0.445,0.662
	c0.276,0.263,0.451,0.502,0.521,0.72c0.01,0.09,0.092,0.216,0.245,0.38c0.154,0.164,0.314,0.394,0.483,0.69l0.653,1.01
	c0.268,0.378,0.485,0.714,0.653,1.011c0.169,0.298,0.362,0.614,0.58,0.951c0.169,0.298,0.374,0.625,0.617,0.981
	c0.243,0.357,0.473,0.703,0.69,1.04c0.605,0.971,1.133,1.759,1.582,2.362c0.452,0.605,0.994,1.324,1.628,2.155
	c0.108,0.169,0.255,0.367,0.438,0.594c0.183,0.229,0.329,0.427,0.438,0.594c0.219,0.338,0.479,0.648,0.78,0.93
	c0.303,0.283,0.563,0.592,0.781,0.929c0.118,0.258,0.299,0.463,0.542,0.616c0.242,0.154,0.424,0.359,0.542,0.616
	c0.239,0.516,0.555,0.932,0.951,1.248c0.298,0.238,0.541,0.494,0.728,0.766c0.189,0.273,0.407,0.508,0.654,0.706l2.303,1.843
	c0.149,0.118,0.245,0.176,0.29,0.17c0.045-0.004,0.093,0.013,0.142,0.052c0.783,0.139,1.264-0.004,1.44-0.43
	c0.179-0.426,0.426-0.837,0.743-1.234l0.833-1.04c0.149-0.287,0.274-0.47,0.378-0.55c0.105-0.079,0.251-0.287,0.439-0.624
	c0.197-0.248,0.347-0.534,0.445-0.862c0.1-0.326,0.109-0.644,0.03-0.952c0.139-0.376,0.131-0.747-0.023-1.113
	c-0.152-0.366-0.313-0.697-0.481-0.996c-0.803-1.535-1.773-2.758-2.913-3.67c-0.099-0.079-0.177-0.161-0.231-0.245
	c-0.054-0.084-0.13-0.166-0.229-0.246l-0.521-0.416c-0.147-0.119-0.277-0.262-0.387-0.43c-0.633-0.831-1.309-1.738-2.028-2.72
	c-0.718-0.98-1.362-1.822-1.938-2.526c-0.009-0.088-0.064-0.172-0.164-0.252c-0.197-0.158-0.326-0.302-0.386-0.432
	c-0.366-0.455-0.721-0.9-1.063-1.337c-0.342-0.435-0.671-0.861-0.987-1.278c-0.159-0.207-0.349-0.479-0.565-0.817
	c-0.219-0.336-0.376-0.544-0.476-0.624c-0.316-0.415-0.632-0.81-0.943-1.181c-0.313-0.372-0.572-0.68-0.781-0.929
	c-0.108-0.167-0.279-0.386-0.512-0.653c-0.233-0.267-0.448-0.481-0.646-0.64c-0.426-0.584-0.898-1.185-1.419-1.806
	c-0.521-0.617-1.013-1.194-1.479-1.731c-0.208-0.246-0.468-0.557-0.781-0.928c-0.311-0.372-0.59-0.656-0.839-0.855
	c-0.654-0.603-1.244-1.034-1.77-1.292c-0.524-0.257-1.122-0.37-1.797-0.342c-0.386-0.227-0.876-0.376-1.471-0.446
	c-0.595-0.068-1.06,0.006-1.396,0.223c-0.277-0.058-1.45,1.187-2.009,1.428"/>
<path d="M140.008,13.753c-0.729,0.087-1.483,0.172-2.259,0.255c-0.392,0.066-0.891,0.146-1.5,0.244
	c-0.61,0.095-55.129-0.71-55.74-0.59c-0.612,0.122-1.209,0.23-1.795,0.328c-0.585,0.099-1.024,0.161-1.315,0.186
	c-0.247,0.077-0.733,0.135-1.458,0.174c-0.725,0.04-1.487,0.076-2.284,0.109c-0.797,0.034-1.545,0.058-2.245,0.076
	c-0.699,0.017-1.169,0.016-1.408-0.002c-0.622-0.05-1.359-0.023-2.209,0.078c-0.85,0.102-1.613,0.15-2.286,0.144
	c-0.144-0.011-0.409-0.006-0.795,0.01c-0.388,0.019-0.81,0.033-1.268,0.046c-0.459,0.011-0.892,0.013-1.3,0.005
	c-0.409-0.008-0.661-0.016-0.757-0.023c-0.335-0.027-0.78-0.038-1.334-0.033c-0.554,0.004-1.044-0.034-1.471-0.116
	c-0.478-0.037-0.907-0.108-1.284-0.21s-0.777-0.217-1.2-0.347c-0.523-0.088-0.901-0.18-1.134-0.27
	c-0.234-0.09-0.586-0.202-1.057-0.335c-0.092-0.056-0.246-0.092-0.461-0.109s-0.367-0.077-0.455-0.18
	c-0.093-0.056-0.262-0.19-0.51-0.402c-0.248-0.211-0.44-0.371-0.576-0.479c-0.214-0.353-0.371-0.654-0.471-0.903
	c-0.101-0.249-0.11-0.587-0.028-1.013c0.07-0.284,0.178-0.588,0.325-0.914c0.145-0.325,0.418-0.592,0.821-0.803
	c0.795-0.321,1.595-0.535,2.398-0.641c0.803-0.105,1.897-0.104,3.285,0.006c0.379,0.079,0.967,0.112,1.762,0.103
	c0.795-0.01,1.651-0.025,2.568-0.05c0.964-0.02,1.907-0.068,2.827-0.139c0.92-0.073,1.647-0.135,2.182-0.19
	c0.434-0.013,0.917-0.035,1.45-0.066c0.531-0.031,0.968-0.079,1.311-0.149c0.39-0.066,1.008-0.113,1.853-0.143
	c0.844-0.03,1.561-0.094,2.146-0.193c0.685-0.138,1.451-0.234,2.298-0.288c0.846-0.053,1.561-0.105,2.143-0.156
	c0.242-0.028,0.631-0.082,1.168-0.161c0.535-0.077,1.095-0.154,1.679-0.228c0.583-0.074,55.051,0.763,55.588,0.684
	c0.536-0.077,0.922-0.107,1.163-0.088c0.242-0.029,0.572-0.087,0.988-0.175c0.415-0.087,0.832-0.176,1.248-0.263
	s0.819-0.164,1.211-0.23c0.39-0.065,0.683-0.114,0.878-0.147c0.533-0.054,1.206-0.037,2.018,0.05
	c0.812,0.089,1.477,0.202,1.996,0.338c0.666,0.101,1.271,0.365,1.814,0.793c0.364,0.27,0.725,0.588,1.081,0.952
	c0.356,0.365,0.624,0.94,0.804,1.725c0.04,0.1,0.067,0.355,0.084,0.764c0.015,0.411,0.04,0.715,0.073,0.909
	c-0.078,0.38-0.177,0.708-0.295,0.988c-0.119,0.279-0.307,0.529-0.564,0.75c-0.166,0.276-0.52,0.477-1.059,0.602
	c-0.541,0.127-0.973,0.104-1.295-0.065c-0.283-0.07-0.614-0.145-0.993-0.223c-0.381-0.078-0.688-0.15-0.923-0.217
	c-0.096-0.008-0.297-0.047-0.604-0.12c-0.309-0.072-0.631-0.097-0.969-0.077c-0.332-0.073-0.644-0.086-0.937-0.037
	c-0.293,0.049-0.561,0.089-0.804,0.118C141.443,13.554,140.736,13.666,140.008,13.753"/>
<path d="M34.209,38.225c-0.332-0.041-0.682-0.062-1.055-0.062c-0.371,0-0.579-0.021-0.619-0.062
	c-0.497-0.165-0.828-0.32-0.993-0.465c-0.166-0.144-0.289-0.279-0.372-0.403c-0.083-0.206-0.154-0.382-0.216-0.527
	c-0.063-0.145-0.053-0.341,0.03-0.589c0-0.206,0.052-0.444,0.155-0.713s0.196-0.486,0.279-0.651
	c0.166-0.165,0.362-0.413,0.589-0.744s0.424-0.558,0.59-0.682c0.33-0.455,0.744-0.889,1.239-1.302
	c0.497-0.413,0.909-0.785,1.241-1.116c0.04-0.083,0.154-0.176,0.34-0.279c0.187-0.103,0.3-0.176,0.342-0.217
	c0.164-0.083,0.288-0.196,0.371-0.341s0.207-0.279,0.373-0.403c0.164-0.124,0.331-0.258,0.496-0.403
	c0.164-0.145,0.372-0.299,0.62-0.465c0.206-0.207,0.403-0.424,0.589-0.652c0.186-0.226,0.341-0.382,0.464-0.465
	c0.125-0.124,0.32-0.371,0.59-0.743c0.268-0.373,0.568-0.765,0.899-1.178c0.248-0.33,0.485-0.61,0.713-0.837
	c0.226-0.227,0.403-0.424,0.526-0.589c0.165-0.289,0.362-0.506,0.59-0.652c0.226-0.144,0.443-0.341,0.651-0.588
	c0.206-0.248,0.382-0.517,0.526-0.807c0.145-0.288,0.321-0.578,0.528-0.868c0.206-0.248,0.424-0.589,0.651-1.023
	s0.382-0.753,0.465-0.961c0.082-0.248,0.175-0.454,0.279-0.62c0.102-0.164,0.196-0.35,0.279-0.558
	c0.124-0.206,0.226-0.372,0.309-0.496s0.228-0.31,0.435-0.558c0.206-0.164,0.412-0.288,0.62-0.372
	c0.206-0.082,0.372-0.227,0.496-0.434c0.083-0.082,0.186-0.144,0.31-0.186c0.124-0.04,0.227-0.102,0.31-0.185
	c0.082-0.083,0.217-0.145,0.403-0.187c0.186-0.04,0.341-0.062,0.465-0.062c0.124-0.04,0.35,0.042,0.682,0.249
	c0.124,0.124,0.258,0.269,0.403,0.433c0.144,0.166,0.258,0.29,0.341,0.372c0.083,0.208,0.155,0.425,0.217,0.651
	c0.062,0.228,0.093,0.383,0.093,0.466v0.185c0.082,0.248,0.041,0.58-0.124,0.992c0,0.042-0.031,0.135-0.094,0.28
	c-0.061,0.145-0.114,0.216-0.154,0.216l-0.682,1.364c-0.207,0.29-0.383,0.642-0.527,1.054c-0.145,0.414-0.321,0.89-0.527,1.426
	l-0.992,2.667c-0.124,0.331-0.269,0.599-0.434,0.806c-0.166,0.207-0.311,0.455-0.434,0.743c-0.083,0.124-0.177,0.332-0.279,0.621
	c-0.103,0.289-0.258,0.619-0.465,0.992c-0.29,0.455-0.62,0.899-0.992,1.333c-0.373,0.434-0.642,0.713-0.806,0.837
	c-0.084,0.083-0.207,0.207-0.372,0.372c-0.166,0.165-0.352,0.351-0.558,0.558c-0.166,0.207-0.332,0.403-0.496,0.589
	c-0.166,0.186-0.332,0.32-0.496,0.403c-0.084,0.041-0.27,0.165-0.558,0.372c-0.29,0.207-0.538,0.413-0.744,0.62
	c-0.124,0.124-0.29,0.3-0.497,0.527c-0.206,0.227-0.392,0.424-0.557,0.589c-0.331,0.29-0.6,0.527-0.807,0.713
	s-0.495,0.383-0.867,0.589c-0.124,0.041-0.321,0.165-0.589,0.372c-0.27,0.207-0.465,0.351-0.589,0.434
	c-0.208,0.083-0.373,0.145-0.497,0.186s-0.247,0.103-0.372,0.186l-0.371,0.186c-0.414,0.083-0.673,0.135-0.776,0.155
	C34.694,38.339,34.498,38.308,34.209,38.225"/>
<path d="M142.271,36.77c-0.077,0.193-0.193,0.32-0.35,0.382c-0.233,0.139-0.428,0.286-0.583,0.441
	c-0.154,0.154-0.35,0.254-0.583,0.302c-0.195,0.053-0.391,0.072-0.585,0.058c-0.194-0.015-0.41-0.115-0.646-0.301
	c-0.078-0.061-0.272-0.239-0.587-0.531c-0.313-0.294-0.528-0.475-0.646-0.544c-0.233-0.093-0.409-0.22-0.526-0.382
	c-0.118-0.161-0.216-0.297-0.295-0.404c-0.195-0.132-0.391-0.285-0.587-0.463c-0.195-0.177-0.353-0.371-0.471-0.579
	c-0.079-0.108-0.185-0.244-0.323-0.411c-0.137-0.165-0.265-0.376-0.383-0.63c-0.117-0.255-0.187-0.453-0.207-0.596
	s-0.068-0.268-0.147-0.376c-0.196-0.27-0.354-0.498-0.471-0.683c-0.118-0.185-0.236-0.383-0.354-0.59
	c-0.118-0.255-0.216-0.494-0.295-0.717c-0.079-0.224-0.138-0.386-0.178-0.486c2.035,4.078-0.275-0.634-0.355-0.973
	c-0.078-0.154-0.137-0.398-0.178-0.729c-0.04-0.332-0.1-0.599-0.179-0.799c-0.078-0.154-0.128-0.315-0.148-0.48
	c-0.021-0.167-0.05-0.461-0.091-0.886c-0.158-0.309-0.237-0.578-0.238-0.81c-0.001-0.093-0.01-0.188-0.031-0.284
	c-0.019-0.097-0.029-0.191-0.029-0.283c-0.001-0.232-0.002-0.394-0.002-0.487c-0.001-0.093-0.021-0.258-0.062-0.497
	c-0.039-0.146-0.05-0.311-0.03-0.492c0.019-0.182,0.008-0.323-0.031-0.423c-0.001-0.185,0.027-0.4,0.085-0.643
	c0.057-0.243,0.184-0.438,0.378-0.584c0.156-0.063,0.341-0.106,0.555-0.134c0.214-0.028,0.361-0.033,0.439-0.018
	c0.155,0.031,0.39,0.146,0.703,0.346c0.313,0.201,0.527,0.358,0.645,0.475c0.313,0.153,0.52,0.332,0.617,0.537
	c0.098,0.204,0.206,0.433,0.324,0.689c0.079,0.108,0.265,0.295,0.558,0.561c0.294,0.266,0.48,0.522,0.559,0.77
	c0.118,0.207,0.236,0.393,0.354,0.555c0.117,0.161,0.235,0.393,0.354,0.694c0.079,0.2,0.147,0.411,0.207,0.631
	c0.06,0.22,0.13,0.476,0.208,0.77c0.079,0.108,0.167,0.217,0.265,0.329c0.099,0.112,0.187,0.291,0.266,0.538
	c0.079,0.108,0.167,0.23,0.266,0.365c0.098,0.134,0.205,0.306,0.323,0.515c0.196,0.27,0.363,0.533,0.5,0.792
	c0.139,0.259,0.228,0.437,0.266,0.539c0.08,0.199,0.257,0.501,0.53,0.902c0.274,0.401,0.452,0.702,0.53,0.902
	c0.039,0.055,0.099,0.182,0.177,0.383c0.079,0.2,0.158,0.424,0.237,0.671c0.119,0.347,0.178,0.612,0.179,0.798
	c0.12,0.719,0.182,1.262,0.183,1.633C142.386,36.365,142.349,36.577,142.271,36.77"/>
<path d="M110.156,29.525c-0.035-0.11-0.085-0.249-0.152-0.414c-0.066-0.165-0.102-0.275-0.105-0.332
	c-0.07-0.221-0.133-0.436-0.188-0.644c-0.055-0.208-0.1-0.381-0.137-0.52c-0.034-0.083-0.069-0.2-0.107-0.354
	c-0.037-0.152-0.06-0.285-0.066-0.398c-0.104-0.303-0.201-0.628-0.294-0.976c-0.091-0.346-0.175-0.673-0.25-0.979
	c-0.037-0.138-0.083-0.312-0.138-0.52c-0.057-0.208-0.088-0.382-0.097-0.523c-0.052-0.391-0.058-0.715-0.018-0.972
	c0.041-0.257,0.152-0.503,0.335-0.74c0.016-0.198,0.087-0.414,0.214-0.648c0.127-0.233,0.273-0.383,0.438-0.45
	c0.05-0.116,0.19-0.245,0.421-0.386c0.23-0.142,0.374-0.227,0.428-0.259c0.273-0.13,0.55-0.232,0.827-0.305
	c0.277-0.074,0.613-0.123,1.007-0.147c0.169-0.011,0.309-0.034,0.419-0.069c0.111-0.034,0.194-0.054,0.25-0.057
	c0.14-0.037,0.287-0.046,0.443-0.028c0.156,0.019,0.275,0.025,0.36,0.02c0.056-0.031,0.152-0.051,0.292-0.06
	c0.142-0.009,0.239-0.015,0.295-0.018c0.113-0.008,0.205-0.006,0.276,0.004c0.071,0.01,0.178,0.025,0.319,0.044
	c0.058-0.004,0.143,0.005,0.256,0.026c0.114,0.021,0.199,0.03,0.256,0.026c0.086,0.023,0.165,0.033,0.234,0.028
	c0.07-0.004,0.135,0.006,0.191,0.03c0.173,0.047,0.331,0.093,0.475,0.141c0.145,0.047,0.288,0.095,0.433,0.142
	c0.172,0.046,0.339,0.121,0.5,0.223c0.162,0.103,0.316,0.206,0.464,0.31c0.117,0.077,0.238,0.19,0.359,0.337
	c0.123,0.148,0.215,0.277,0.277,0.385c0.099,0.22,0.146,0.408,0.141,0.562c-0.004,0.156-0.018,0.291-0.038,0.405
	c-0.042,0.229-0.11,0.387-0.203,0.478c-0.093,0.09-0.194,0.167-0.304,0.23c-0.108,0.064-0.248,0.094-0.417,0.09
	c-0.17-0.004-0.299-0.031-0.387-0.082c-0.088-0.051-0.192-0.158-0.315-0.319c-0.06-0.053-0.142-0.118-0.245-0.197
	c-0.104-0.078-0.185-0.143-0.245-0.196c-0.088-0.051-0.245-0.097-0.474-0.14c-0.113-0.021-0.207-0.043-0.279-0.067
	s-0.179-0.045-0.321-0.065c-0.169,0.01-0.368-0.02-0.598-0.09c-0.14,0.037-0.285,0.06-0.44,0.07c-0.153,0.009-0.288,0.017-0.4,0.024
	c-0.084,0.005-0.211,0.006-0.381,0.003c-0.17-0.004-0.352,0.015-0.547,0.055c-0.167,0.038-0.325,0.083-0.478,0.135
	c-0.152,0.052-0.255,0.094-0.311,0.125c-0.165,0.067-0.258,0.157-0.279,0.271c-0.049,0.116-0.064,0.329-0.045,0.638
	c0.012,0.196,0.061,0.412,0.146,0.647s0.147,0.421,0.184,0.56c0.071,0.249,0.131,0.415,0.179,0.496
	c0.047,0.082,0.104,0.22,0.174,0.413c0.033,0.082,0.082,0.185,0.146,0.308c0.063,0.123,0.098,0.227,0.103,0.311
	c0.06,0.053,0.102,0.163,0.127,0.331c0.024,0.168,0.067,0.292,0.128,0.373c0.03,0.026,0.055,0.088,0.076,0.185
	c0.02,0.098,0.062,0.216,0.127,0.352l0.2,0.495c0.068,0.194,0.135,0.359,0.199,0.496c0.065,0.138,0.131,0.288,0.197,0.453
	c0.065,0.138,0.131,0.296,0.198,0.475c0.068,0.179,0.135,0.351,0.202,0.516c0.198,0.468,0.349,0.861,0.454,1.178
	c0.104,0.318,0.226,0.699,0.366,1.141c0.033,0.083,0.068,0.186,0.104,0.311c0.036,0.125,0.071,0.228,0.104,0.311
	c0.066,0.165,0.112,0.339,0.138,0.52c0.026,0.182,0.072,0.356,0.138,0.521c0.064,0.109,0.092,0.227,0.086,0.354
	c-0.007,0.128,0.022,0.246,0.085,0.355c0.126,0.218,0.197,0.439,0.21,0.664c0.011,0.168,0.041,0.322,0.093,0.459
	c0.051,0.139,0.081,0.278,0.09,0.418l0.08,1.307c0.006,0.084,0.002,0.134-0.012,0.149s-0.019,0.036-0.018,0.064
	c-0.149,0.32-0.324,0.458-0.524,0.413c-0.199-0.043-0.413-0.059-0.638-0.045l-0.59,0.037c-0.143-0.019-0.241-0.02-0.296-0.003
	c-0.056,0.018-0.169,0.018-0.339,0c-0.141,0.008-0.282-0.011-0.427-0.058c-0.144-0.048-0.262-0.125-0.354-0.232
	c-0.172-0.046-0.305-0.143-0.398-0.293c-0.094-0.149-0.173-0.292-0.238-0.43c-0.353-0.683-0.549-1.348-0.588-1.995
	c-0.005-0.055-0.015-0.105-0.031-0.146s-0.027-0.09-0.03-0.146l-0.019-0.295c-0.004-0.084-0.024-0.168-0.058-0.25
	c-0.14-0.442-0.297-0.92-0.469-1.431c-0.173-0.511-0.314-0.961-0.422-1.349c-0.03-0.026-0.047-0.068-0.05-0.124
	c-0.008-0.112-0.026-0.196-0.059-0.25c-0.071-0.25-0.143-0.492-0.215-0.728C110.297,29.976,110.227,29.748,110.156,29.525"/>
<path d="M64.892,23.614c0.065,0.015,0.134,0.059,0.208,0.13c0.096,0.078,0.15,0.228,0.163,0.452c0.027,0.254,0.051,0.481,0.07,0.678
	c0.019,0.198,0.032,0.422,0.038,0.672c0.017,0.114,0.026,0.261,0.027,0.441c0,0.179-0.009,0.308-0.029,0.386l-0.317,1.253
	c-0.02,0.078-0.044,0.149-0.071,0.211c-0.027,0.063-0.051,0.133-0.071,0.212c-0.053,0.209-0.12,0.448-0.199,0.72
	c-0.081,0.271-0.169,0.507-0.265,0.705c-0.123,0.303-0.227,0.556-0.313,0.757c-0.085,0.201-0.177,0.401-0.273,0.6
	c-0.083,0.146-0.162,0.301-0.238,0.463s-0.162,0.342-0.258,0.541c-0.048,0.1-0.118,0.236-0.207,0.408
	c-0.09,0.173-0.17,0.307-0.24,0.401c-0.236,0.387-0.406,0.693-0.509,0.918s-0.226,0.487-0.371,0.784
	c-0.036,0.048-0.073,0.15-0.112,0.306c-0.02,0.079-0.048,0.141-0.082,0.189l-0.278,1.095c-0.053,0.209-0.054,0.396-0.003,0.558
	c0.051,0.164,0.114,0.324,0.19,0.479c0.096,0.078,0.213,0.16,0.353,0.246c0.139,0.088,0.256,0.17,0.352,0.247
	c0.118,0.082,0.28,0.126,0.486,0.132c0.206,0.006,0.349,0.032,0.429,0.078c0.255,0.085,0.585-0.032,0.99-0.354
	c0.078-0.037,0.183-0.109,0.314-0.218c0.131-0.107,0.235-0.221,0.312-0.342c0.126-0.137,0.27-0.317,0.431-0.543
	c0.16-0.226,0.304-0.448,0.429-0.668c0.221-0.418,0.341-0.667,0.361-0.746l0.01-0.039c0.09-0.172,0.18-0.324,0.271-0.455
	c0.09-0.131,0.15-0.249,0.176-0.353c0.096-0.198,0.212-0.407,0.348-0.624c0.135-0.218,0.22-0.391,0.253-0.522
	c0.138-0.272,0.235-0.498,0.293-0.678c0.057-0.18,0.123-0.372,0.198-0.576c0.006-0.026,0.036-0.102,0.092-0.228
	c0.054-0.125,0.085-0.2,0.092-0.227c0.033-0.13,0.071-0.239,0.117-0.325c0.044-0.086,0.094-0.192,0.149-0.318
	c0.035-0.047,0.074-0.134,0.119-0.263c0.044-0.127,0.089-0.241,0.138-0.34c0.006-0.026,0.03-0.097,0.071-0.212
	c0.04-0.115,0.064-0.185,0.07-0.211c0.033-0.131,0.077-0.258,0.132-0.384c0.055-0.125,0.099-0.253,0.132-0.384l0.057-0.36
	c0.047-0.458,0.078-0.948,0.094-1.469c-0.004-0.166,0.001-0.324,0.016-0.473c0.015-0.147,0.017-0.292,0.006-0.433
	c0.012-0.135,0.007-0.253-0.014-0.355c-0.02-0.101-0.042-0.196-0.066-0.284c0.011-0.136,0.002-0.282-0.027-0.441
	c-0.029-0.158-0.052-0.295-0.069-0.409c-0.057-0.234-0.11-0.453-0.162-0.659c-0.052-0.204-0.138-0.39-0.257-0.555
	c-0.074-0.072-0.141-0.15-0.201-0.233c-0.06-0.082-0.112-0.17-0.158-0.263c-0.083-0.13-0.204-0.241-0.365-0.333
	c-0.162-0.092-0.304-0.166-0.428-0.222l-0.589-0.135c-0.24-0.055-0.431-0.071-0.575-0.049c-0.209,0.008-0.418,0.057-0.625,0.147
	c-0.208,0.091-0.382,0.23-0.521,0.419c-0.071,0.094-0.127,0.178-0.168,0.251c-0.041,0.074-0.075,0.163-0.102,0.267
	c-0.033,0.131-0.033,0.247-0.002,0.351C64.745,23.532,64.805,23.594,64.892,23.614"/>
<path d="M89.066,25.907c0.065,0.232,0.132,0.472,0.197,0.719c0.045,0.124,0.099,0.282,0.165,0.476
	c0.066,0.193,0.138,0.387,0.215,0.58c0.077,0.193,0.148,0.383,0.214,0.568c0.066,0.186,0.11,0.325,0.131,0.418
	c0.045,0.077,0.088,0.232,0.132,0.464c0.045,0.232,0.089,0.475,0.132,0.731c0.044,0.255,0.083,0.495,0.115,0.719
	c0.033,0.224,0.05,0.375,0.05,0.452c0,0.202,0.039,0.437,0.115,0.708c0.077,0.271,0.127,0.514,0.148,0.731
	c0,0.046,0.012,0.131,0.033,0.255c0.023,0.124,0.045,0.259,0.066,0.406c0.022,0.147,0.039,0.286,0.05,0.418
	c0.011,0.131,0.016,0.212,0.016,0.243c0,0.109,0.012,0.252,0.033,0.429c0.022,0.179,0.022,0.337,0,0.476
	c0,0.155-0.016,0.294-0.049,0.418c-0.034,0.123-0.071,0.255-0.116,0.394c-0.021,0.17-0.049,0.294-0.082,0.372
	c-0.033,0.077-0.071,0.193-0.115,0.347c-0.022,0.031-0.033,0.082-0.033,0.151c0,0.07-0.021,0.12-0.066,0.151
	c-0.022,0.031-0.077,0.089-0.165,0.174c-0.087,0.085-0.153,0.151-0.198,0.197c-0.153,0.078-0.285,0.136-0.395,0.174
	c-0.11,0.039-0.264,0.051-0.461,0.035c-0.132-0.015-0.275-0.042-0.429-0.081c-0.153-0.039-0.285-0.12-0.396-0.244
	c-0.175-0.247-0.301-0.499-0.379-0.754c-0.076-0.255-0.115-0.607-0.115-1.056c0.022-0.123,0.017-0.313-0.016-0.568
	c-0.033-0.255-0.071-0.53-0.115-0.823c-0.044-0.31-0.099-0.612-0.165-0.906c-0.067-0.293-0.121-0.525-0.165-0.695
	c-0.022-0.14-0.05-0.294-0.082-0.465c-0.034-0.17-0.072-0.309-0.116-0.417c-0.044-0.124-0.088-0.321-0.132-0.592
	c-0.043-0.27-0.099-0.499-0.165-0.684c-0.087-0.216-0.159-0.46-0.214-0.731c-0.055-0.271-0.104-0.499-0.148-0.685
	c-0.022-0.077-0.06-0.2-0.116-0.371c-0.054-0.17-0.109-0.348-0.164-0.533c-0.055-0.186-0.11-0.364-0.165-0.534
	c-0.054-0.17-0.082-0.294-0.082-0.371c-0.022-0.077-0.061-0.182-0.115-0.313c-0.055-0.132-0.111-0.263-0.166-0.395
	c-0.054-0.131-0.104-0.259-0.148-0.383c-0.044-0.123-0.077-0.216-0.099-0.278c-0.044-0.17-0.06-0.387-0.049-0.65
	c0.011-0.262,0.039-0.479,0.082-0.649c0.022-0.216,0.121-0.418,0.297-0.604c0.11-0.123,0.242-0.247,0.395-0.371
	c0.154-0.123,0.407-0.224,0.758-0.302c0.045-0.015,0.16-0.03,0.347-0.046c0.186-0.015,0.324-0.031,0.412-0.046
	c0.175,0.015,0.329,0.039,0.461,0.07c0.132,0.031,0.253,0.084,0.362,0.162c0.132,0.046,0.237,0.154,0.313,0.325
	c0.078,0.17,0.082,0.309,0.017,0.417c-0.022,0.093-0.044,0.201-0.066,0.325s-0.044,0.225-0.066,0.302
	c0,0.031-0.011,0.096-0.033,0.197s-0.022,0.205,0,0.313c-0.022,0.108-0.016,0.209,0.017,0.302c0.033,0.093,0.06,0.178,0.082,0.255
	C88.923,25.451,89,25.675,89.066,25.907"/>
</svg>
